<svg xmlns="http://www.w3.org/2000/svg" viewBox="-14.000 -14.000 506.491 116.000">
  <g transform="scale(0.2076328242277154) translate(-294.922 -106.224)">
    <path fill="#ffffff" d="M566.923828,112.813965 C611.591675,122.363792 649.641479,143.169525 681.096802,175.713287 C707.603760,203.137573 726.180908,235.157181 734.035461,272.671906 C742.305176,312.169434 736.752197,350.285095 719.333984,386.495300 C696.067566,434.862854 660.720703,471.216888 610.536316,491.665283 C572.852661,507.020020 533.486023,510.179413 493.265350,505.579651 C477.820923,503.813324 462.743866,500.556122 447.927917,496.009460 C444.803528,495.050629 442.110687,495.437134 439.238403,496.603302 C414.242279,506.752350 389.215363,516.825745 364.228821,526.998230 C359.480774,528.931274 354.719574,530.048828 349.634399,528.779602 C338.570160,526.017944 332.840668,516.090698 335.033447,503.480438 C339.362274,478.586121 343.399780,453.647247 347.077667,428.646118 C347.699463,424.419403 345.729431,422.014801 343.533142,419.363617 C327.691620,400.241333 316.144470,378.799957 309.317627,354.944305 C294.922394,304.641663 301.389221,256.877930 328.716431,212.426865 C361.508179,159.087021 409.419159,126.628036 470.362762,113.321075 C502.309174,106.345596 534.417664,106.223740 566.923828,112.813965 M437.443146,160.999329 C404.948029,176.439423 379.067352,199.272003 360.896973,230.410126 C343.598572,260.053986 335.928894,291.995209 340.444794,326.269012 C344.794983,359.285339 359.914673,386.843353 384.643829,409.034790 C388.880554,412.836761 390.296356,416.183411 388.634216,421.976349 C383.635437,439.398346 379.375153,457.032745 374.872253,474.595947 C374.320953,476.746246 373.480255,478.922485 374.119781,481.610138 C375.980591,481.045624 377.589478,480.683105 379.102234,480.079620 C398.744629,472.243896 418.394196,464.425323 437.986542,456.465973 C441.561859,455.013489 444.776154,454.624054 448.525665,456.093628 C480.433746,468.599243 513.436462,473.046509 547.489319,468.801453 C586.657043,463.918823 621.112183,448.607788 650.067261,421.562561 C696.809753,377.903229 711.557373,315.699341 689.092834,256.625916 C663.911377,190.408035 599.785950,146.353073 527.041138,143.453598 C496.177124,142.223404 466.393494,147.873795 437.443146,160.999329 z"/>
    <path fill="#ffffff" d="M537.038574,320.000000 C537.017395,344.984406 536.993591,369.468811 536.980103,393.953217 C536.978210,397.461914 536.831177,400.963440 535.722839,404.317627 C533.066467,412.356354 524.438171,417.975006 516.311401,417.043396 C506.627167,415.933197 499.437134,408.539398 498.859100,398.808594 C498.602692,394.492767 498.786621,390.150238 498.786652,385.819824 C498.787048,330.188477 498.773956,274.557129 498.806305,218.925812 C498.813049,207.339645 504.544678,200.034653 514.916565,198.089584 C524.641113,196.265900 534.740967,203.298538 536.274658,213.111084 C536.735168,216.057312 536.904236,219.075928 536.911316,222.062073 C536.987793,254.541306 537.005554,287.020660 537.038574,320.000000 z"/>
    <path fill="#ffffff" d="M590.418579,247.037170 C590.705933,249.267090 591.094055,251.081116 591.095703,252.895493 C591.128235,289.210602 591.124756,325.525757 591.105957,361.840912 C591.102234,368.985260 588.539062,374.870880 582.250671,378.699036 C570.829468,385.651947 556.006531,377.805664 555.636475,364.449097 C554.612305,327.478973 555.068115,290.497345 555.220703,253.521988 C555.279297,239.327438 564.839600,231.072815 577.133728,233.756866 C584.140564,235.286591 588.431335,239.772919 590.418579,247.037170 z"/>
    <path fill="#ffffff" d="M443.971924,327.000000 C443.979034,302.848022 443.942535,279.195923 444.011444,255.544128 C444.044800,244.098495 448.220825,237.444153 456.793030,234.699066 C468.545288,230.935654 480.156799,239.252121 480.278015,251.787170 C480.443939,268.941681 480.341003,286.098816 480.344879,303.254852 C480.349243,322.409637 480.361542,341.564453 480.336823,360.719208 C480.321289,372.758209 473.099609,380.688812 462.153259,380.771698 C452.067505,380.848053 444.356628,372.870453 444.074188,361.477295 C443.793579,350.157654 443.986420,338.826233 443.971924,327.000000 z"/>
    <path fill="#ffffff" d="M644.384766,295.003876 C644.380859,306.997711 644.457153,318.493134 644.358521,329.987091 C644.266663,340.684814 636.870789,348.233154 626.647217,348.291046 C616.334167,348.349457 608.712646,340.527130 608.679077,329.715027 C608.632507,314.721924 608.635071,299.728394 608.683472,284.735291 C608.718140,273.994995 616.491028,265.961823 626.628479,266.059052 C636.648438,266.155121 644.145264,273.952454 644.333496,284.509583 C644.392883,287.840607 644.372559,291.173035 644.384766,295.003876 z"/>
    <path fill="#ffffff" d="M396.142090,272.242798 C402.175568,266.297516 408.885712,264.376709 416.488556,267.618591 C424.276245,270.939331 427.489075,277.141052 427.387268,285.536804 C427.207520,300.363953 427.369049,315.194916 427.322540,330.024109 C427.289734,340.485962 419.688690,348.251892 409.567230,348.292389 C399.468109,348.332794 391.797180,340.613434 391.720917,330.036041 C391.612793,315.040863 391.717224,300.044281 391.673279,285.048492 C391.659546,280.363007 393.073242,276.220764 396.142090,272.242798 z"/>
  </g>
  <g transform="translate(108.779 67.840)">
    <path fill="#ffffff" d="M21.568 0.768L21.568 0.768Q17.088 0.768 13.152 -0.864Q9.216 -2.496 6.368 -5.504Q3.52 -8.512 2.112 -12.608L2.112 -12.608L10.24 -16.256Q12.032 -12.352 15.2 -10.112Q18.368 -7.872 22.208 -7.872L22.208 -7.872Q24.256 -7.872 25.728 -8.512Q27.2 -9.152 28.032 -10.272Q28.864 -11.392 28.864 -12.928L28.864 -12.928Q28.864 -14.592 27.84 -15.776Q26.816 -16.96 24.64 -17.664L24.64 -17.664L15.296 -20.736Q9.6 -22.592 6.72 -26.016Q3.84 -29.44 3.84 -34.24L3.84 -34.24Q3.84 -38.464 5.92 -41.664Q8 -44.864 11.744 -46.656Q15.488 -48.448 20.352 -48.448L20.352 -48.448Q24.64 -48.448 28.288 -46.976Q31.936 -45.504 34.592 -42.816Q37.248 -40.128 38.592 -36.352L38.592 -36.352L30.528 -32.704Q29.184 -36.032 26.496 -37.92Q23.808 -39.808 20.352 -39.808L20.352 -39.808Q18.368 -39.808 16.832 -39.168Q15.296 -38.528 14.464 -37.344Q13.632 -36.16 13.632 -34.624L13.632 -34.624Q13.632 -32.96 14.72 -31.712Q15.808 -30.464 17.984 -29.76L17.984 -29.76L27.136 -26.816Q32.896 -24.96 35.744 -21.632Q38.592 -18.304 38.592 -13.504L38.592 -13.504Q38.592 -9.344 36.416 -6.112Q34.24 -2.88 30.432 -1.056Q26.624 0.768 21.568 0.768M52.528 0L42.928 0L42.928 -48.448L52.528 -48.448L52.528 -28.032L51.376 -29.568Q52.592 -32.704 55.312 -34.208Q58.032 -35.712 61.68 -35.712L61.68 -35.712Q65.648 -35.712 68.624 -34.048Q71.6 -32.384 73.264 -29.408Q74.928 -26.432 74.928 -22.464L74.928 -22.464L74.928 0L65.328 0L65.328 -20.416Q65.328 -22.464 64.528 -23.936Q63.728 -25.408 62.288 -26.24Q60.848 -27.072 58.928 -27.072L58.928 -27.072Q57.072 -27.072 55.6 -26.24Q54.128 -25.408 53.328 -23.936Q52.528 -22.464 52.528 -20.416L52.528 -20.416L52.528 0M90.08 0.768L90.08 0.768Q86.304 0.768 83.552 -0.448Q80.8 -1.664 79.328 -3.936Q77.856 -6.208 77.856 -9.344L77.856 -9.344Q77.856 -12.288 79.2 -14.56Q80.544 -16.832 83.328 -18.368Q86.112 -19.904 90.272 -20.544L90.272 -20.544L100.96 -22.272L100.96 -15.232L92 -13.632Q89.952 -13.248 88.864 -12.32Q87.776 -11.392 87.776 -9.664L87.776 -9.664Q87.776 -8.064 88.992 -7.168Q90.208 -6.272 92 -6.272L92 -6.272Q94.368 -6.272 96.16 -7.296Q97.952 -8.32 98.944 -10.08Q99.936 -11.84 99.936 -13.952L99.936 -13.952L99.936 -23.04Q99.936 -25.024 98.368 -26.368Q96.8 -27.712 94.112 -27.712L94.112 -27.712Q91.552 -27.712 89.6 -26.304Q87.648 -24.896 86.752 -22.592L86.752 -22.592L79.072 -26.24Q80.096 -29.184 82.336 -31.296Q84.576 -33.408 87.712 -34.56Q90.848 -35.712 94.56 -35.712L94.56 -35.712Q98.976 -35.712 102.368 -34.112Q105.76 -32.512 107.648 -29.664Q109.536 -26.816 109.536 -23.04L109.536 -23.04L109.536 0L100.576 0L100.576 -5.632L102.752 -6.016Q101.216 -3.712 99.36 -2.208Q97.504 -0.704 95.2 0.032Q92.896 0.768 90.08 0.768M124.176 0L114.576 0L114.576 -48.448L124.176 -48.448L124.176 0M146.56 0.768L146.56 0.768Q141.376 0.768 137.12 -1.6Q132.864 -3.968 130.336 -8.096Q127.808 -12.224 127.808 -17.472L127.808 -17.472Q127.808 -22.784 130.336 -26.88Q132.864 -30.976 137.12 -33.344Q141.376 -35.712 146.56 -35.712L146.56 -35.712Q151.744 -35.712 155.968 -33.344Q160.192 -30.976 162.72 -26.88Q165.248 -22.784 165.248 -17.472L165.248 -17.472Q165.248 -12.224 162.72 -8.096Q160.192 -3.968 155.968 -1.6Q151.744 0.768 146.56 0.768M146.56 -7.872L146.56 -7.872Q149.184 -7.872 151.136 -9.088Q153.088 -10.304 154.208 -12.48Q155.328 -14.656 155.328 -17.472L155.328 -17.472Q155.328 -20.288 154.208 -22.432Q153.088 -24.576 151.136 -25.824Q149.184 -27.072 146.56 -27.072L146.56 -27.072Q143.936 -27.072 141.952 -25.824Q139.968 -24.576 138.848 -22.432Q137.728 -20.288 137.728 -17.472L137.728 -17.472Q137.728 -14.656 138.848 -12.48Q139.968 -10.304 141.952 -9.088Q143.936 -7.872 146.56 -7.872M178.48 0L168.88 0L168.88 -34.944L177.84 -34.944L177.84 -26.432L176.88 -27.84Q177.648 -31.872 180.592 -33.792Q183.536 -35.712 187.632 -35.712L187.632 -35.712Q191.984 -35.712 195.28 -33.504Q198.576 -31.296 199.408 -27.584L199.408 -27.584L196.656 -27.328Q198.384 -31.616 201.584 -33.664Q204.784 -35.712 209.072 -35.712L209.072 -35.712Q212.848 -35.712 215.76 -34.048Q218.672 -32.384 220.336 -29.408Q222 -26.432 222 -22.464L222 -22.464L222 0L212.4 0L212.4 -20.416Q212.4 -22.464 211.664 -23.936Q210.928 -25.408 209.584 -26.24Q208.24 -27.072 206.32 -27.072L206.32 -27.072Q204.464 -27.072 203.088 -26.24Q201.712 -25.408 200.976 -23.936Q200.24 -22.464 200.24 -20.416L200.24 -20.416L200.24 0L190.64 0L190.64 -20.416Q190.64 -22.464 189.904 -23.936Q189.168 -25.408 187.824 -26.24Q186.48 -27.072 184.56 -27.072L184.56 -27.072Q182.704 -27.072 181.328 -26.24Q179.952 -25.408 179.216 -23.936Q178.48 -22.464 178.48 -20.416L178.48 -20.416L178.48 0M236.96 0L227.04 0L227.04 -47.68L259.68 -47.68L259.68 -39.04L236.96 -39.04L236.96 -26.944L256.48 -26.944L256.48 -18.304L236.96 -18.304L236.96 0M271.504 0L261.904 0L261.904 -48.448L271.504 -48.448L271.504 0M293.888 0.768L293.888 0.768Q288.704 0.768 284.448 -1.6Q280.192 -3.968 277.664 -8.096Q275.136 -12.224 275.136 -17.472L275.136 -17.472Q275.136 -22.784 277.664 -26.88Q280.192 -30.976 284.448 -33.344Q288.704 -35.712 293.888 -35.712L293.888 -35.712Q299.072 -35.712 303.296 -33.344Q307.52 -30.976 310.048 -26.88Q312.576 -22.784 312.576 -17.472L312.576 -17.472Q312.576 -12.224 310.048 -8.096Q307.52 -3.968 303.296 -1.6Q299.072 0.768 293.888 0.768M293.888 -7.872L293.888 -7.872Q296.512 -7.872 298.464 -9.088Q300.416 -10.304 301.536 -12.48Q302.656 -14.656 302.656 -17.472L302.656 -17.472Q302.656 -20.288 301.536 -22.432Q300.416 -24.576 298.464 -25.824Q296.512 -27.072 293.888 -27.072L293.888 -27.072Q291.264 -27.072 289.28 -25.824Q287.296 -24.576 286.176 -22.432Q285.056 -20.288 285.056 -17.472L285.056 -17.472Q285.056 -14.656 286.176 -12.48Q287.296 -10.304 289.28 -9.088Q291.264 -7.872 293.888 -7.872M333.104 0L324.784 0L312.752 -34.944L322.672 -34.944L331.12 -9.728L327.664 -9.792L337.072 -34.944L345.392 -34.944L354.736 -9.792L351.28 -9.728L359.728 -34.944L369.712 -34.944L357.616 0L349.296 0L339.568 -27.008L342.896 -27.008L333.104 0"/>
  </g>
</svg>
